<?xml version="1.0" encoding="UTF-8"?>
<svg width="790px" height="322px" viewBox="0 0 790 322" version="1.1" xmlns="http://www.w3.org/2000/svg" xmlns:xlink="http://www.w3.org/1999/xlink">
    <!-- Generator: Sketch 60 (88103) - https://sketch.com -->
    <title>Fill 1@2x</title>
    <desc>Created with Sketch.</desc>
    <g id="web-desktop" stroke="none" stroke-width="1" fill="none" fill-rule="evenodd">
        <g id="city" transform="translate(-650.000000, -206.000000)" fill="#FF2943">
            <g id="Group-5" transform="translate(0.000000, -10.000000)">
                <g id="Group-22" transform="translate(0.000000, 10.000000)">
                    <path d="M837.08604,1098.73119 C709.168742,976.270393 769.631289,722.882188 1033.12959,690.519287 C1134.71061,678.038127 1218.47537,607.73262 1172.13584,396.38168 C1125.7994,185.03382 1262.13814,174.447479 1299.56646,175.334809 C1336.99169,176.22522 1396.49012,187.51095 1461.20035,63.3247872 C1525.89826,-60.8613753 1743.33118,-59.080553 1746.89505,140.574884 C1750.45891,340.22724 1691.44717,349.143675 1827.09286,559.493289 C1962.74162,769.845983 1935.80778,998.878825 1766.50094,1076.88685 C1597.19411,1154.89487 1096.39209,1183.41268 1046.49178,1169.14761 C996.591468,1154.89487 837.08604,1098.73119 837.08604,1098.73119" id="Fill-1" transform="translate(1343.002921, 575.684422) rotate(39.000000) translate(-1343.002921, -575.684422) "></path>
                </g>
            </g>
        </g>
    </g>
</svg>